<svg width="1024" height="1024" viewBox="0 0 1024 1024" fill="none" xmlns="http://www.w3.org/2000/svg">
<g clip-path="url(#clip0_6_156)">
<rect width="1024" height="1024" rx="256" fill="white"/>
<path d="M256 73.0777C256 214.42 370.615 329 512 329C653.385 329 768 214.42 768 73.0777C768 -68.2643 625.92 -330 512 -330C398.08 -330 256 -68.2643 256 73.0777Z" fill="url(#paint0_radial_6_156)"/>
<path d="M-256 72.0777C-256 213.42 -141.385 328 5.72205e-06 328C141.385 328 256 213.42 256 72.0777C256 -69.2643 113.92 -331 5.72205e-06 -331C-113.92 -331 -256 -69.2643 -256 72.0777Z" fill="url(#paint1_radial_6_156)"/>
<path d="M767 72.0777C767 213.42 881.615 328 1023 328C1164.38 328 1279 213.42 1279 72.0777C1279 -69.2643 1136.92 -331 1023 -331C909.08 -331 767 -69.2643 767 72.0777Z" fill="url(#paint2_radial_6_156)"/>
<path d="M511 108.078C511 249.42 625.615 364 767 364C908.385 364 1023 249.42 1023 108.078C1023 -33.2643 880.92 -295 767 -295C653.08 -295 511 -33.2643 511 108.078Z" fill="url(#paint3_radial_6_156)"/>
<path d="M-0.999989 108.078C-0.999989 249.42 113.615 364 255 364C396.385 364 511 249.42 511 108.078C511 -33.2643 368.92 -295 255 -295C141.08 -295 -0.999989 -33.2643 -0.999989 108.078Z" fill="url(#paint4_radial_6_156)"/>
<path d="M256 439.078C256 580.42 370.615 695 512 695C653.385 695 768 580.42 768 439.078C768 297.736 625.92 36 512 36C398.08 36 256 297.736 256 439.078Z" fill="url(#paint5_radial_6_156)"/>
<path d="M-256 438.078C-256 579.42 -141.385 694 5.72205e-06 694C141.385 694 256 579.42 256 438.078C256 296.736 113.92 35 5.72205e-06 35C-113.92 35 -256 296.736 -256 438.078Z" fill="url(#paint6_radial_6_156)"/>
<path d="M767 438.078C767 579.42 881.615 694 1023 694C1164.38 694 1279 579.42 1279 438.078C1279 296.736 1136.92 35 1023 35C909.08 35 767 296.736 767 438.078Z" fill="url(#paint7_radial_6_156)"/>
<path d="M512 767.078C512 908.42 626.615 1023 768 1023C909.385 1023 1024 908.42 1024 767.078C1024 625.736 881.92 364 768 364C654.08 364 512 625.736 512 767.078Z" fill="url(#paint8_radial_6_156)"/>
<path d="M1.14441e-05 767.078C1.14441e-05 908.42 114.615 1023 256 1023C397.385 1023 512 908.42 512 767.078C512 625.736 369.92 364 256 364C142.08 364 1.14441e-05 625.736 1.14441e-05 767.078Z" fill="url(#paint9_radial_6_156)"/>
<path d="M257 1098.08C257 1239.42 371.615 1354 513 1354C654.385 1354 769 1239.42 769 1098.08C769 956.736 626.92 695 513 695C399.08 695 257 956.736 257 1098.08Z" fill="url(#paint10_radial_6_156)"/>
<path d="M-255 1097.08C-255 1238.42 -140.385 1353 1.00001 1353C142.385 1353 257 1238.42 257 1097.08C257 955.736 114.92 694 1.00001 694C-112.92 694 -255 955.736 -255 1097.08Z" fill="url(#paint11_radial_6_156)"/>
<path d="M768 1097.08C768 1238.42 882.615 1353 1024 1353C1165.38 1353 1280 1238.42 1280 1097.08C1280 955.736 1137.92 694 1024 694C910.08 694 768 955.736 768 1097.08Z" fill="url(#paint12_radial_6_156)"/>
</g>
<defs>
<radialGradient id="paint0_radial_6_156" cx="0" cy="0" r="1" gradientUnits="userSpaceOnUse" gradientTransform="translate(512 -330) rotate(90) scale(551.513 551.68)"><stop stop-color="#FFE62B"/><stop offset="0.572137" stop-color="#49D716"/><stop offset="1" stop-color="#2DAA00"/></radialGradient>
<radialGradient id="paint1_radial_6_156" cx="0" cy="0" r="1" gradientUnits="userSpaceOnUse" gradientTransform="translate(-3.28827e-05 -331) rotate(90) scale(551.513 551.68)"><stop stop-color="#FFE62B"/><stop offset="0.572137" stop-color="#49D716"/><stop offset="1" stop-color="#2DAA00"/></radialGradient>
<radialGradient id="paint2_radial_6_156" cx="0" cy="0" r="1" gradientUnits="userSpaceOnUse" gradientTransform="translate(1023 -331) rotate(90) scale(551.513 551.68)"><stop stop-color="#FFE62B"/><stop offset="0.572137" stop-color="#49D716"/><stop offset="1" stop-color="#2DAA00"/></radialGradient>
<radialGradient id="paint3_radial_6_156" cx="0" cy="0" r="1" gradientUnits="userSpaceOnUse" gradientTransform="translate(767 -295) rotate(90) scale(551.513 551.68)"><stop stop-color="#FFE62B"/><stop offset="0.572137" stop-color="#49D716"/><stop offset="1" stop-color="#2DAA00"/></radialGradient>
<radialGradient id="paint4_radial_6_156" cx="0" cy="0" r="1" gradientUnits="userSpaceOnUse" gradientTransform="translate(255 -295) rotate(90) scale(551.513 551.68)"><stop stop-color="#FFE62B"/><stop offset="0.572137" stop-color="#49D716"/><stop offset="1" stop-color="#2DAA00"/></radialGradient>
<radialGradient id="paint5_radial_6_156" cx="0" cy="0" r="1" gradientUnits="userSpaceOnUse" gradientTransform="translate(512 36) rotate(90) scale(551.513 551.68)"><stop stop-color="#FFE62B"/><stop offset="0.572137" stop-color="#49D716"/><stop offset="1" stop-color="#2DAA00"/></radialGradient>
<radialGradient id="paint6_radial_6_156" cx="0" cy="0" r="1" gradientUnits="userSpaceOnUse" gradientTransform="translate(-3.28827e-05 35) rotate(90) scale(551.513 551.68)"><stop stop-color="#FFE62B"/><stop offset="0.572137" stop-color="#49D716"/><stop offset="1" stop-color="#2DAA00"/></radialGradient>
<radialGradient id="paint7_radial_6_156" cx="0" cy="0" r="1" gradientUnits="userSpaceOnUse" gradientTransform="translate(1023 35) rotate(90) scale(551.513 551.68)"><stop stop-color="#FFE62B"/><stop offset="0.572137" stop-color="#49D716"/><stop offset="1" stop-color="#2DAA00"/></radialGradient>
<radialGradient id="paint8_radial_6_156" cx="0" cy="0" r="1" gradientUnits="userSpaceOnUse" gradientTransform="translate(768 364) rotate(90) scale(551.513 551.68)"><stop stop-color="#FFE62B"/><stop offset="0.572137" stop-color="#49D716"/><stop offset="1" stop-color="#2DAA00"/></radialGradient>
<radialGradient id="paint9_radial_6_156" cx="0" cy="0" r="1" gradientUnits="userSpaceOnUse" gradientTransform="translate(256 364) rotate(90) scale(551.513 551.68)"><stop stop-color="#FFE62B"/><stop offset="0.572137" stop-color="#49D716"/><stop offset="1" stop-color="#2DAA00"/></radialGradient>
<radialGradient id="paint10_radial_6_156" cx="0" cy="0" r="1" gradientUnits="userSpaceOnUse" gradientTransform="translate(513 695) rotate(90) scale(551.513 551.68)"><stop stop-color="#FFE62B"/><stop offset="0.572137" stop-color="#49D716"/><stop offset="1" stop-color="#2DAA00"/></radialGradient>
<radialGradient id="paint11_radial_6_156" cx="0" cy="0" r="1" gradientUnits="userSpaceOnUse" gradientTransform="translate(0.999967 694) rotate(90) scale(551.513 551.68)"><stop stop-color="#FFE62B"/><stop offset="0.572137" stop-color="#49D716"/><stop offset="1" stop-color="#2DAA00"/></radialGradient>
<radialGradient id="paint12_radial_6_156" cx="0" cy="0" r="1" gradientUnits="userSpaceOnUse" gradientTransform="translate(1024 694) rotate(90) scale(551.513 551.68)"><stop stop-color="#FFE62B"/><stop offset="0.572137" stop-color="#49D716"/><stop offset="1" stop-color="#2DAA00"/></radialGradient>
<clipPath id="clip0_6_156"><rect width="1024" height="1024" rx="256" fill="white"/></clipPath>
</defs>
</svg>